 <svg  version="1.0" xmlns="http://www.w3.org/2000/svg"  width="1731.000000pt" height="1299.000000pt" viewBox="0 0 1731.000000 1299.000000"  preserveAspectRatio="xMidYMid meet">  <g transform="translate(0.000000,1299.000000) scale(0.100000,-0.100000)" fill="#000000" stroke="none"> <path d="M6595 11104 c-38 -24 -73 -43 -77 -44 -4 0 -36 -17 -70 -38 -35 -21 -94 -56 -133 -76 -38 -21 -77 -45 -86 -52 -8 -8 -19 -14 -23 -14 -3 0 -51 -27 -106 -60 -55 -33 -101 -60 -104 -60 -2 0 -61 -34 -130 -75 -69 -41 -129 -75 -133 -75 -3 0 -14 -6 -22 -14 -9 -7 -46 -29 -83 -49 -37 -19 -79 -44 -95 -54 -15 -11 -59 -37 -98 -58 -64 -35 -199 -112 -235 -135 -8 -6 -24 -14 -35 -19 -11 -5 -37 -21 -58 -35 -21 -14 -40 -26 -44 -26 -4 0 -106 -59 -173 -100 -8 -5 -37 -21 -65 -36 -27 -14 -62 -35 -76 -45 -15 -10 -37 -23 -50 -29 -13 -5 -31 -14 -39 -20 -38 -25 -155 -93 -174 -101 -12 -5 -34 -18 -51 -28 -26 -17 -74 -44 -150 -85 -11 -6 -34 -21 -51 -33 -17 -12 -42 -27 -55 -33 -25 -10 -35 -16 -175 -101 -45 -27 -84 -49 -87 -49 -3 0 -25 -12 -49 -27 -74 -48 -82 -53 -107 -63 -13 -6 -37 -20 -52 -31 l-29 -20 0 -1735 0 -1734 40 -25 c22 -14 42 -25 44 -25 3 0 25 -13 49 -30 25 -16 48 -30 51 -30 4 0 51 -27 106 -60 55 -33 102 -60 104 -60 3 0 84 -47 181 -105 96 -58 177 -105 179 -105 2 0 61 -34 131 -75 69 -41 129 -75 132 -75 3 0 25 -13 50 -30 24 -16 47 -30 50 -30 3 0 39 -20 80 -46 42 -25 83 -44 92 -42 10 2 27 35 47 93 45 127 187 454 233 536 5 8 21 39 36 67 15 29 31 55 36 58 5 3 9 11 9 19 0 8 12 33 28 57 37 59 47 76 78 133 14 28 36 64 48 80 13 17 26 37 30 45 13 28 31 56 111 169 44 62 94 132 110 156 114 163 333 417 555 645 80 82 295 273 430 381 196 158 550 409 575 409 4 0 51 27 105 60 54 33 102 60 106 60 4 0 15 6 23 14 16 14 290 154 391 199 30 14 86 39 123 56 38 17 71 31 75 31 3 0 56 20 117 44 60 24 157 58 215 76 58 18 119 38 135 45 17 7 62 21 100 30 39 9 86 21 105 27 19 6 53 15 75 19 22 5 85 19 140 33 55 13 132 30 170 36 39 6 90 15 115 20 25 4 83 13 130 19 146 20 224 34 243 43 15 8 17 31 17 267 0 293 4 278 -85 326 -48 26 -261 149 -328 189 -18 10 -50 29 -72 40 -39 22 -100 58 -140 84 -11 6 -27 15 -35 19 -8 3 -47 26 -87 50 -39 24 -74 43 -76 43 -3 0 -51 27 -106 60 -56 33 -104 60 -107 60 -3 0 -24 12 -47 28 -68 44 -81 52 -103 61 -11 5 -50 27 -85 49 -35 21 -91 54 -124 72 -33 18 -78 45 -100 58 -22 14 -58 36 -80 48 -22 11 -56 31 -75 42 -19 12 -57 33 -83 47 -27 14 -77 44 -113 65 -35 22 -66 40 -69 40 -2 0 -61 34 -130 75 -70 41 -130 75 -134 75 -4 0 -27 14 -49 30 -23 17 -45 30 -48 30 -5 0 -87 47 -174 100 -19 11 -192 111 -240 137 -19 11 -93 54 -165 95 -71 41 -137 77 -145 80 -8 3 -46 -14 -85 -38z m-720 -1709 c219 -75 357 -172 476 -335 53 -71 119 -220 119 -266 0 -12 7 -38 15 -57 20 -49 21 -261 1 -314 -8 -21 -17 -56 -21 -78 -8 -49 -72 -184 -117 -246 -101 -141 -239 -246 -400 -305 -96 -35 -197 -47 -339 -40 -93 4 -133 11 -210 36 -52 17 -101 37 -109 44 -8 7 -26 17 -40 23 -42 18 -146 101 -196 156 -78 86 -174 248 -174 292 0 9 -5 26 -11 37 -50 94 -52 373 -3 471 8 16 14 37 14 48 0 17 31 82 88 186 22 40 140 160 205 209 52 39 103 67 192 105 25 11 141 46 175 53 56 11 285 -2 335 -19z"/> <path d="M5575 8901 c-36 -9 -109 -54 -148 -90 -36 -33 -74 -113 -89 -184 -10 -47 -9 -64 7 -119 40 -135 131 -223 258 -247 152 -30 298 44 362 182 20 43 25 68 25 140 0 88 -6 111 -54 194 -14 24 -79 76 -136 107 -38 22 -170 32 -225 17z"/> <path d="M9565 8339 c-22 -4 -94 -15 -160 -24 -159 -21 -263 -43 -440 -90 -27 -7 -70 -18 -95 -25 -25 -6 -58 -15 -75 -20 -16 -5 -52 -16 -80 -24 -95 -29 -230 -78 -240 -87 -5 -5 -17 -9 -26 -9 -25 0 -284 -110 -459 -195 -102 -49 -258 -133 -337 -181 -39 -24 -73 -44 -76 -44 -4 0 -184 -120 -278 -186 -252 -176 -484 -376 -742 -639 -241 -246 -481 -561 -675 -885 -96 -160 -219 -397 -283 -547 -28 -65 -58 -134 -66 -153 -15 -33 -56 -144 -89 -238 -8 -23 -13 -46 -10 -51 3 -5 38 -27 78 -50 40 -23 80 -46 88 -51 8 -6 35 -21 60 -35 25 -14 52 -29 60 -34 57 -36 222 -131 225 -131 4 0 192 -109 225 -130 8 -6 24 -15 35 -20 11 -6 34 -19 50 -30 17 -11 37 -23 45 -27 8 -4 59 -33 113 -65 55 -32 101 -58 103 -58 3 0 35 -18 71 -40 37 -22 75 -40 85 -40 16 0 45 15 113 57 11 7 40 23 65 36 25 12 64 35 87 50 24 15 45 27 47 27 3 0 47 25 98 56 50 31 101 60 113 65 21 9 30 15 103 62 24 15 45 27 47 27 5 0 159 89 217 126 21 13 40 24 43 24 6 0 132 73 175 100 8 6 22 13 30 17 8 4 47 26 85 48 39 23 77 45 85 49 17 8 39 21 97 59 24 15 45 27 48 27 3 0 50 27 104 60 55 33 102 60 105 60 4 0 25 12 49 27 46 30 53 34 142 83 33 17 65 36 70 40 10 8 60 37 130 75 22 11 60 34 84 49 25 16 61 36 80 45 20 9 61 33 91 53 30 19 78 47 105 62 28 15 64 36 80 46 17 11 50 30 75 42 25 13 63 35 85 49 22 14 67 41 100 59 33 18 93 53 133 77 41 24 78 43 82 43 5 0 16 10 24 22 14 20 16 150 16 1198 0 901 -3 1179 -12 1188 -13 13 -43 14 -103 1z"/> </g> </svg> 