<?xml version="1.0" encoding="UTF-8"?>
<svg version="1.1" xmlns="http://www.w3.org/2000/svg" width="512" height="512">
<path d="M0 0 C1.2751895 -0.00654048 1.2751895 -0.00654048 2.5761404 -0.0132131 C5.4501701 -0.02423887 8.323727 -0.0137134 11.19775391 -0.00342751 C13.26885729 -0.00688118 15.33995884 -0.01164377 17.41105652 -0.01760924 C23.12212626 -0.03018882 28.83304654 -0.02391735 34.54411697 -0.01465058 C40.69551888 -0.0078888 46.8468943 -0.01832701 52.99829102 -0.02659035 C64.35899923 -0.03918704 75.71964618 -0.03805642 87.0803529 -0.02985594 C97.57440708 -0.02231796 108.06844368 -0.02033511 118.5625 -0.02392387 C119.25780449 -0.02415303 119.95310898 -0.02438218 120.6694833 -0.02461828 C123.4917432 -0.02555225 126.31400308 -0.02650745 129.13626295 -0.02749758 C155.62705083 -0.03668062 182.11780816 -0.02834462 208.60859132 -0.01220688 C232.15916188 0.0020306 255.70968377 0.00075675 279.26025391 -0.01358986 C305.70168301 -0.02964357 332.14308513 -0.03602944 358.58451843 -0.02675307 C361.40172322 -0.02579087 364.21892801 -0.02485236 367.03613281 -0.02392387 C367.72983258 -0.02368664 368.42353235 -0.02344941 369.13825333 -0.02320499 C379.62733253 -0.01978836 390.11639225 -0.02379123 400.60546875 -0.03136253 C412.5285281 -0.03992587 424.45152995 -0.03753687 436.37458706 -0.0215203 C442.46296389 -0.01361236 448.55124173 -0.01058878 454.63961792 -0.02046776 C460.2057969 -0.02936312 465.77178449 -0.02456754 471.33794594 -0.0085351 C473.35875572 -0.0051653 475.37958144 -0.0069302 477.40038109 -0.01416247 C480.1333662 -0.02319833 482.86568344 -0.01401738 485.59863281 0 C486.79359705 -0.01053525 486.79359705 -0.01053525 488.01270199 -0.02128333 C490.86187277 0.00821001 493.22000302 0.0830379 495.78826392 1.38857591 C497.44422483 4.64619049 497.20832201 8.00732891 497.17683983 11.57820702 C497.18120015 12.42833335 497.18556047 13.27845968 497.19005293 14.15434742 C497.20107869 17.02837712 497.19055323 19.90193401 497.18026733 22.77596092 C497.183721 24.84706431 497.1884836 26.91816586 497.19444907 28.98926353 C497.20702865 34.70033327 497.20075718 40.41125356 497.19149041 46.12232399 C497.18472863 52.27372589 497.19516684 58.42510132 497.20343018 64.57649803 C497.21602687 75.93720625 497.21489625 87.2978532 497.20669577 98.65855992 C497.19915779 109.15261409 497.19717494 119.64665069 497.2007637 130.14070702 C497.20110744 131.18366375 497.20110744 131.18366375 497.20145811 132.24769032 C497.20239208 135.06995021 497.20334728 137.8922101 497.2043374 140.71446997 C497.21352045 167.20525784 497.20518445 193.69601517 497.18904671 220.18679833 C497.17480923 243.73736889 497.17608308 267.28789079 497.19042969 290.83846092 C497.2064834 317.27989003 497.21286927 343.72129214 497.2035929 370.16272545 C497.2026307 372.97993024 497.20169218 375.79713503 497.2007637 378.61433983 C497.20040785 379.65488949 497.20040785 379.65488949 497.20004482 380.71646035 C497.19662819 391.20553954 497.20063105 401.69459926 497.20820236 412.18367577 C497.21676569 424.10673512 497.21437669 436.02973697 497.19836013 447.95279408 C497.19045219 454.04117091 497.18742861 460.12944874 497.19730759 466.21782494 C497.20620294 471.78400391 497.20140737 477.34999151 497.18537493 482.91615295 C497.18200513 484.93696273 497.18377003 486.95778846 497.19100229 488.9785881 C497.20003816 491.71157322 497.1908572 494.44389046 497.17683983 497.17683983 C497.18386333 497.97348266 497.19088683 498.77012548 497.19812316 499.590909 C497.16862981 502.44007979 497.09380193 504.79821003 495.78826392 507.36647093 C492.53064934 509.02243184 489.16951092 508.78652903 485.59863281 508.75504684 C484.74850648 508.75940717 483.89838015 508.76376749 483.02249241 508.76825994 C480.14846271 508.77928571 477.27490581 508.76876025 474.40087891 508.75847435 C472.32977552 508.76192802 470.25867397 508.76669062 468.18757629 508.77265608 C462.47650656 508.78523567 456.76558627 508.77896419 451.05451584 508.76969743 C444.90311393 508.76293564 438.75173851 508.77337385 432.6003418 508.78163719 C421.23963358 508.79423388 409.87898663 508.79310326 398.51827991 508.78490279 C388.02422574 508.7773648 377.53018914 508.77538195 367.03613281 508.77897072 C366.34082832 508.77919987 365.64552383 508.77942903 364.92914951 508.77966513 C362.10688962 508.7805991 359.28462973 508.78155429 356.46236986 508.78254442 C329.97158199 508.79172746 303.48082465 508.78339146 276.99004149 508.76725373 C253.43947094 508.75301624 229.88894904 508.7542901 206.33837891 508.7686367 C179.8969498 508.78469042 153.45554769 508.79107628 127.01411438 508.78179991 C124.19690959 508.78083772 121.3797048 508.7798992 118.5625 508.77897072 C117.86880023 508.77873349 117.17510046 508.77849625 116.46037948 508.77825183 C105.97130028 508.7748352 95.48224056 508.77883807 84.99316406 508.78640938 C73.07010471 508.79497271 61.14710286 508.79258371 49.22404575 508.77656715 C43.13566892 508.7686592 37.04739109 508.76563562 30.95901489 508.7755146 C25.39283592 508.78440996 19.82684832 508.77961439 14.26068687 508.76358195 C12.2398771 508.76021214 10.21905137 508.76197704 8.19825172 508.76920931 C5.46526661 508.77824518 2.73294937 508.76906422 0 508.75504684 C-1.19496424 508.76558209 -1.19496424 508.76558209 -2.41406918 508.77633017 C-5.26323996 508.74683683 -7.6213702 508.67200894 -10.1896311 507.36647093 C-11.84559201 504.10885636 -11.6096892 500.74771794 -11.57820702 497.17683983 C-11.58256734 496.3267135 -11.58692766 495.47658716 -11.59142011 494.60069942 C-11.60244588 491.72666972 -11.59192042 488.85311283 -11.58163452 485.97908592 C-11.58508819 483.90798254 -11.58985079 481.83688098 -11.59581625 479.76578331 C-11.60839584 474.05471357 -11.60212436 468.34379329 -11.5928576 462.63272285 C-11.58609581 456.48132095 -11.59653403 450.32994553 -11.60479736 444.17854881 C-11.61739406 432.8178406 -11.61626343 421.45719364 -11.60806296 410.09648693 C-11.60052498 399.60243275 -11.59854212 389.10839615 -11.60213089 378.61433983 C-11.60236005 377.91903534 -11.6025892 377.22373085 -11.6028253 376.50735652 C-11.60375927 373.68509663 -11.60471447 370.86283675 -11.60570459 368.04057688 C-11.61488764 341.549789 -11.60655164 315.05903167 -11.5904139 288.56824851 C-11.57617641 265.01767795 -11.57745027 241.46715605 -11.59179688 217.91658592 C-11.60785059 191.47515681 -11.61423645 165.0337547 -11.60496008 138.5923214 C-11.60399789 135.77511661 -11.60305937 132.95791181 -11.60213089 130.14070702 C-11.60189366 129.44700724 -11.60165643 128.75330747 -11.601412 128.0385865 C-11.59799537 117.5495073 -11.60199824 107.06044758 -11.60956955 96.57137108 C-11.61813288 84.64831173 -11.61574388 72.72530988 -11.59972732 60.80225277 C-11.59181938 54.71387594 -11.58879579 48.6255981 -11.59867477 42.53722191 C-11.60757013 36.97104293 -11.60277456 31.40505534 -11.58674212 25.83889389 C-11.58337231 23.81808411 -11.58513721 21.79725839 -11.59236948 19.77645874 C-11.60140535 17.04347363 -11.59222439 14.31115638 -11.57820702 11.57820702 C-11.58523051 10.78156419 -11.59225401 9.98492136 -11.59949034 9.16413784 C-11.569997 6.31496705 -11.49516912 3.95683681 -10.1896311 1.38857591 C-6.93201653 -0.267385 -3.57087811 -0.03148218 0 0 Z " fill="#020303" transform="translate(13.20068359375,1.622476577758789)"/>
<path d="M0 0 C160.38 0 320.76 0 486 0 C486 160.71 486 321.42 486 487 C453 487 420 487 386 487 C385.75 460 385.75 460 385.70214844 451.58203125 C385.53355602 435.78254351 384.92778927 420.92554597 377.3125 406.6875 C376.9707373 406.02999756 376.62897461 405.37249512 376.27685547 404.69506836 C366.01759268 385.65709339 349.17418152 373.80885929 329.15625 366.91015625 C323.64713172 365.32151199 318.35330492 364.84906254 312.6328125 364.68359375 C311.61343094 364.6524221 311.61343094 364.6524221 310.57345581 364.62062073 C308.42406334 364.5557637 306.2745593 364.49654059 304.125 364.4375 C302.6588431 364.39425388 301.19269706 364.35063775 299.7265625 364.30664062 C296.15115378 364.19945926 292.57564858 364.09991408 289 364 C289 358.72 289 353.44 289 348 C290.29550781 347.731875 291.59101563 347.46375 292.92578125 347.1875 C319.8891182 341.34868035 340.78975514 329.75456558 361 311 C361.59425781 310.47148437 362.18851562 309.94296875 362.80078125 309.3984375 C377.1872767 296.00766608 386.91716274 277.059164 394 259 C394.66128906 257.37578125 394.66128906 257.37578125 395.3359375 255.71875 C397.38997806 250.39069329 399.00525536 245.66174827 399.6015625 239.98828125 C401.1096006 226.83308117 401.1096006 226.83308117 404.67480469 223.37597656 C408.81305331 220.61647224 413.36353137 218.82693386 417.94873047 216.94775391 C430.34859079 211.21861111 436.46847591 198.02388464 441 186 C444.65227641 175.04317078 443.4740503 159.12610999 438.5390625 148.74609375 C438.03117187 147.83988281 437.52328125 146.93367187 437 146 C436.49210937 145.04222656 435.98421875 144.08445313 435.4609375 143.09765625 C428.98602827 131.91232728 419.87251051 124.85492995 408 120 C407.33750244 119.72494629 406.67500488 119.44989258 405.99243164 119.16650391 C400.88866554 117.23138932 396.67777278 116.8405824 391.24951172 117.04370117 C380.17228633 117.37885618 380.17228633 117.37885618 376.24072266 114.88330078 C373.23927095 111.94291625 371.19553031 108.39486433 369.10253906 104.77978516 C367.29641745 101.86423454 365.07549256 99.3844111 362.75 96.875 C362.29641113 96.38435059 361.84282227 95.89370117 361.37548828 95.38818359 C341.78713114 74.80715025 311.14671882 58.6586506 282.51586914 57.81758118 C277.17467171 57.72752841 271.83388704 57.7480747 266.4921875 57.76953125 C264.51547272 57.7707261 262.53875736 57.77117557 260.56204224 57.7709198 C256.438623 57.77247576 252.31529167 57.78069762 248.19189453 57.79418945 C242.92897121 57.81120014 237.66614393 57.81500253 232.40319633 57.81424427 C228.32808531 57.81451723 224.25299491 57.82001829 220.17789078 57.82724571 C218.23797893 57.83040799 216.29806477 57.83239402 214.35815048 57.83313942 C211.64090814 57.83532788 208.9237639 57.84412467 206.20654297 57.85473633 C205.4197818 57.85428314 204.63302063 57.85382996 203.82241821 57.85336304 C195.1601581 57.90238181 186.9153484 58.67926563 178.625 61.25 C177.89168457 61.47324951 177.15836914 61.69649902 176.40283203 61.92651367 C159.21096135 67.2789838 143.7270365 75.36728266 130 87 C129.22462891 87.65572998 129.22462891 87.65572998 128.43359375 88.32470703 C120.07930326 95.48291019 111.4699207 103.56019083 106.2109375 113.3203125 C104 116 104 116 100.3828125 116.62890625 C98.96336942 116.62790074 97.54381973 116.60457425 96.125 116.5625 C81.12743218 116.80341188 67.73474978 122.7771756 57.25 133.5625 C52.25502023 139.41837395 49.01432611 145.95265585 46 153 C45.61199219 153.90492188 45.22398438 154.80984375 44.82421875 155.7421875 C43.62987699 160.46295065 43.71104817 165.02549658 43.75 169.875 C43.74226563 170.83019531 43.73453125 171.78539062 43.7265625 172.76953125 C43.76660938 187.36661932 49.48738252 200.33243794 59.60546875 210.8125 C64.46750863 215.25416775 69.38422607 219.16670493 75.703125 221.1796875 C79 223 79 223 80.1640625 226.66796875 C80.34505752 228.17143856 80.49702494 229.6785921 80.625 231.1875 C80.83224203 232.82536997 81.04857833 234.4621118 81.2734375 236.09765625 C81.38526367 236.92152832 81.49708984 237.74540039 81.61230469 238.59423828 C85.89012882 265.1393762 101.94619318 290.86929944 120 310 C120.67289062 310.73734375 121.34578125 311.4746875 122.0390625 312.234375 C132.63786691 323.42861786 145.3470969 331.10853463 159 338 C159 346.58 159 355.16 159 364 C156.86402344 364.02578125 154.72804687 364.0515625 152.52734375 364.078125 C150.402142 364.11680552 148.27716206 364.16187997 146.15209961 364.20751953 C144.70266755 364.23532255 143.25309533 364.25673365 141.8034668 364.27099609 C121.38138106 364.48365231 103.43458366 370.032881 88 384 C87.23042969 384.67675781 86.46085937 385.35351562 85.66796875 386.05078125 C71.89812561 398.88230458 63.67460404 417.24187408 62.87472534 435.92630005 C62.79000273 439.25418995 62.73163712 442.5815378 62.68359375 445.91015625 C62.66494263 446.9822937 62.6462915 448.05443115 62.6270752 449.15905762 C62.55927821 453.12679573 62.49881174 457.09465638 62.4375 461.0625 C62.293125 469.951875 62.14875 478.84125 62 488 C41.54 488 21.08 488 0 488 C0 326.96 0 165.92 0 0 Z " fill="#67BFDF" transform="translate(13,12)"/>
<path d="M0 0 C1.3376239 -0.01007584 1.3376239 -0.01007584 2.70227051 -0.02035522 C5.64637856 -0.03933039 8.59025845 -0.04325962 11.53442383 -0.04541016 C13.58840528 -0.05183994 15.64238582 -0.05856844 17.69636536 -0.06558228 C22.00283937 -0.07755494 26.30923318 -0.08126326 30.61572266 -0.08007812 C36.11556869 -0.07987529 41.61489594 -0.10714094 47.11461926 -0.14162254 C51.35875273 -0.16394018 55.6027625 -0.16791412 59.84694862 -0.16685867 C61.87340388 -0.16920871 63.89986285 -0.17799833 65.92625999 -0.19352341 C88.39888297 -0.34953182 88.39888297 -0.34953182 96.49145508 6.29052734 C97.26489258 7.28052734 97.26489258 7.28052734 98.05395508 8.29052734 C98.59020508 8.95052734 99.12645508 9.61052734 99.67895508 10.29052734 C102.69200865 14.67315072 103.3618365 18.02414281 103.71020508 23.26708984 C103.891027 25.5133921 103.891027 25.5133921 106.05395508 27.29052734 C108.63749726 27.45740182 108.63749726 27.45740182 111.05395508 27.29052734 C111.32208008 26.48615234 111.59020508 25.68177734 111.86645508 24.85302734 C112.25833008 23.67740234 112.65020508 22.50177734 113.05395508 21.29052734 C113.23700195 20.59056641 113.42004883 19.89060547 113.60864258 19.16943359 C115.5101758 12.39668871 118.73978795 6.9642794 124.83056641 3.18945312 C131.57452227 -0.29444643 138.02469475 -0.30842475 145.49145508 -0.20947266 C146.65483398 -0.22494141 147.81821289 -0.24041016 149.0168457 -0.25634766 C157.44699717 -0.21839537 164.73875494 0.87432724 171.49145508 6.22021484 C172.00708008 6.86216797 172.52270508 7.50412109 173.05395508 8.16552734 C173.85833008 9.12072266 173.85833008 9.12072266 174.67895508 10.09521484 C178.3108801 15.89391331 178.36139397 21.59928376 178.35473633 28.22021484 C178.35902145 29.16937775 178.36330658 30.11854065 178.36772156 31.09646606 C178.37344795 33.09848231 178.37397762 35.10051935 178.36962891 37.10253906 C178.36647258 40.14863992 178.38993694 43.19376536 178.4152832 46.23974609 C178.41755689 48.19156779 178.41825937 50.14339209 178.41723633 52.09521484 C178.42644608 52.99754852 178.43565582 53.8998822 178.44514465 54.82955933 C178.39615883 61.6003736 177.4792249 67.38020356 173.00317383 72.75146484 C165.83005708 78.82197815 160.66266772 80.42841274 151.34692383 81.04443359 C149.09137955 81.04389888 149.09137955 81.04389888 148.05395508 82.29052734 C147.61822821 86.99109596 148.22432912 89.1580002 151.17895508 92.79052734 C162.49978318 108.08397869 163.39766178 124.26523477 163.31469727 142.59082031 C163.30395054 145.41672082 163.31465676 148.24198951 163.32739258 151.06787109 C163.32607122 152.89469539 163.3235093 154.7215193 163.31958008 156.54833984 C163.32362854 157.37778107 163.327677 158.20722229 163.33184814 159.0617981 C163.1775045 178.6814391 154.57739977 195.48680401 141.05395508 209.29052734 C140.16643555 210.2321875 140.16643555 210.2321875 139.26098633 211.19287109 C124.60500574 225.46061379 103.97065175 228.91460004 84.40405273 228.76147461 C63.31810361 228.22759934 45.94275722 221.04483764 30.80786133 206.06787109 C18.31126913 192.67360308 11.76468207 175.53275189 11.71801758 157.31396484 C11.71136078 156.3856485 11.70470398 155.45733215 11.69784546 154.50088501 C11.68777887 152.54618287 11.68302657 150.59144678 11.68334961 148.63671875 C11.67899704 145.69390065 11.64266977 142.75261025 11.60473633 139.81005859 C11.51991721 125.80447812 12.86903117 113.39301534 19.49145508 100.79052734 C20.08829102 99.64712891 20.68512695 98.50373047 21.30004883 97.32568359 C22.76041989 94.79849358 24.27001014 92.5287697 26.05395508 90.22802734 C28.34960779 87.48580153 28.34960779 87.48580153 27.92895508 84.41552734 C27.23504482 82.34341196 27.23504482 82.34341196 26.05395508 81.29052734 C23.49470113 81.1920945 20.95754558 81.15338949 18.39770508 81.14990234 C16.80133688 81.13155376 15.20498237 81.1119816 13.60864258 81.09130859 C11.09181007 81.06249736 8.57584524 81.04053163 6.05883789 81.04003906 C-12.74183157 81.01397873 -12.74183157 81.01397873 -20.47094727 73.88378906 C-26.45591168 67.37500498 -27.41289695 60.76670119 -27.41479492 52.33349609 C-27.42240845 51.39049149 -27.43002197 50.44748688 -27.43786621 49.47590637 C-27.44862986 47.48827753 -27.45153558 45.50059231 -27.44702148 43.51293945 C-27.44605105 40.49706997 -27.48767663 37.48376339 -27.53198242 34.46826172 C-27.65418894 15.09792612 -27.65418894 15.09792612 -21.94604492 8.29052734 C-15.12117678 1.94304214 -9.17283179 -0.00994579 0 0 Z " fill="#FDCCBD" transform="translate(194.946044921875,123.70947265625)"/>
<path d="M0 0 C0.680625 0.18175781 1.36125 0.36351562 2.0625 0.55078125 C17.4559991 4.54244657 31.65550015 6.45532783 47.5 6.51171875 C49.31560439 6.52861279 51.13119743 6.54676915 52.94677734 6.56611633 C57.66805466 6.61311039 62.38928596 6.64324403 67.11071777 6.66955566 C71.95150851 6.69962015 76.79214121 6.74605969 81.6328125 6.79101562 C91.08845811 6.87647111 100.54413679 6.94406945 110 7 C110.02505615 7.59538574 110.0501123 8.19077148 110.07592773 8.80419922 C110.19177494 11.49469136 110.31455196 14.1848234 110.4375 16.875 C110.47681641 17.81214844 110.51613281 18.74929688 110.55664062 19.71484375 C110.61948242 21.05869141 110.61948242 21.05869141 110.68359375 22.4296875 C110.72025146 23.25710449 110.75690918 24.08452148 110.79467773 24.93701172 C110.88238327 27.06179429 110.88238327 27.06179429 112 29 C112.96711914 29.01458252 113.93423828 29.02916504 114.93066406 29.04418945 C118.57651697 29.10289852 122.22179812 29.1801141 125.8671875 29.26245117 C127.43414922 29.29536379 129.00121993 29.32349616 130.56835938 29.34643555 C140.11369746 29.48985974 148.81608725 30.09947982 158 33 C159.17433594 33.35320312 160.34867187 33.70640625 161.55859375 34.0703125 C180.17710284 40.89120457 192.821097 53.65957634 201.61328125 71.22265625 C206.18895917 81.68327687 207.29902509 91.4400716 207.1953125 102.7890625 C207.19106766 104.56571793 207.19106766 104.56571793 207.18673706 106.37826538 C207.17562395 110.12728369 207.1505358 113.87605501 207.125 117.625 C207.11495874 120.18098611 207.1058349 122.736976 207.09765625 125.29296875 C207.07742313 131.52881544 207.03825685 137.76413422 207 144 C195.45 144 183.9 144 172 144 C171.67 129.48 171.34 114.96 171 100 C168.69 100 166.38 100 164 100 C153.61839233 110.38160767 162.34134516 129.32215823 162 144 C106.56 144 51.12 144 -6 144 C-6.33 129.81 -6.66 115.62 -7 101 C-8.11836224 99.65595225 -8.11836224 99.65595225 -11 99.875 C-13.88163776 99.65595225 -13.88163776 99.65595225 -15 101 C-15.12185143 102.34983748 -15.17766831 103.70574701 -15.20532227 105.06079102 C-15.22550415 105.93368774 -15.24568604 106.80658447 -15.26647949 107.70593262 C-15.28295532 108.62926392 -15.29943115 109.55259521 -15.31640625 110.50390625 C-15.33505737 111.3482019 -15.3537085 112.19249756 -15.3729248 113.06237793 C-15.44144007 116.22897458 -15.50144955 119.39575064 -15.5625 122.5625 C-15.706875 129.636875 -15.85125 136.71125 -16 144 C-42.73 144 -69.46 144 -97 144 C-97.103125 134.925 -97.20625 125.85 -97.3125 116.5 C-97.35802002 113.66986328 -97.40354004 110.83972656 -97.45043945 107.92382812 C-97.66061073 85.54829761 -94.20523256 68.01579701 -78.23046875 51.23828125 C-77.49441406 50.49964844 -76.75835937 49.76101563 -76 49 C-75.39800781 48.37480469 -74.79601562 47.74960937 -74.17578125 47.10546875 C-57.97806662 31.54020285 -36.84700466 29.92294057 -15.52880859 29.52319336 C-13.51120773 29.4836372 -11.49386636 29.4314712 -9.4765625 29.37890625 C-8.28111816 29.3538501 -7.08567383 29.32879395 -5.85400391 29.30297852 C-2.8694671 29.2884733 -2.8694671 29.2884733 -1 27 C-0.62760773 24.18597317 -0.62760773 24.18597317 -0.5859375 20.8984375 C-0.54726562 19.68671875 -0.50859375 18.475 -0.46875 17.2265625 C-0.4378125 15.95554687 -0.406875 14.68453125 -0.375 13.375 C-0.33632812 12.09625 -0.29765625 10.8175 -0.2578125 9.5 C-0.16328951 6.33347983 -0.07773643 3.1669696 0 0 Z " fill="#484946" transform="translate(182,355)"/>
<path d="M0 0 C0.85156677 -0.00335861 1.70313354 -0.00671722 2.58050537 -0.01017761 C5.37359101 -0.01961493 8.16661624 -0.02162706 10.9597168 -0.02270508 C12.91733321 -0.02592263 14.87494939 -0.02928707 16.83256531 -0.03279114 C20.92858436 -0.03876433 25.02458237 -0.0406329 29.12060547 -0.04003906 C34.3454633 -0.03993753 39.57018496 -0.05358837 44.79501057 -0.07081127 C48.83671172 -0.08197955 52.87838045 -0.08395679 56.92009544 -0.08342934 C58.8452317 -0.08460223 60.77036898 -0.08898482 62.69548988 -0.0967617 C81.86599759 -0.1669581 81.86599759 -0.1669581 91.09643555 2.14526367 C91.84664474 2.32207672 92.59685394 2.49888977 93.36979675 2.68106079 C126.48823223 10.66856816 152.39893274 33.12280109 170.1940918 61.48901367 C189.60670043 94.10518848 195.0613552 133.88226807 186.47827148 170.80444336 C178.76833507 200.84738336 162.83314388 228.90560163 138.09643555 248.14526367 C137.43643555 247.81526367 136.77643555 247.48526367 136.09643555 247.14526367 C136.47155273 246.57420898 136.84666992 246.0031543 137.2331543 245.41479492 C145.64229561 232.09149546 149.3965786 218.62813192 149.43237305 202.97729492 C149.43902985 201.9394133 149.44568665 200.90153168 149.45254517 199.8321991 C149.46261076 197.64807897 149.46736409 195.46392846 149.46704102 193.27978516 C149.47140115 189.98376275 149.50775191 186.68909576 149.5456543 183.39331055 C149.62656288 168.52038844 148.59069552 155.62938615 141.34643555 142.33276367 C138.09643555 136.29022166 138.09643555 136.29022166 138.09643555 134.14526367 C138.79768555 133.93772461 139.49893555 133.73018555 140.22143555 133.51635742 C149.81951941 130.39958834 155.92688462 125.83660474 161.08862305 117.13745117 C161.42120117 116.4800293 161.7537793 115.82260742 162.09643555 115.14526367 C162.44101807 114.49928223 162.78560059 113.85330078 163.140625 113.18774414 C164.56978924 108.63851175 164.40155613 104.21500599 164.3972168 99.47338867 C164.40150192 98.43639832 164.40578705 97.39940796 164.41020203 96.33099365 C164.41593779 94.13888274 164.41645115 91.94675279 164.41210938 89.75463867 C164.40895983 86.42096964 164.4323825 83.0881974 164.45776367 79.75463867 C164.46003795 77.61922312 164.46073957 75.48380519 164.4597168 73.34838867 C164.47353142 71.86668182 164.47353142 71.86668182 164.48762512 70.3550415 C164.42093956 60.24665354 161.8475159 52.70578479 155.09643555 45.14526367 C146.34543052 36.85483785 137.15077554 35.91806222 125.58154297 35.85009766 C124.22889691 35.83864685 122.87629353 35.81830561 121.52392578 35.78857422 C111.22203176 35.56256135 102.3956319 36.18398323 93.94018555 42.50463867 C93.16674805 43.29354492 92.39331055 44.08245117 91.59643555 44.89526367 C90.14223616 46.35890591 88.65061527 47.788256 87.09643555 49.14526367 C84.09643555 49.14526367 84.09643555 49.14526367 82.6237793 47.78979492 C82.09913086 47.18522461 81.57448242 46.5806543 81.03393555 45.95776367 C75.89058222 40.56271433 68.69533595 36.53706845 61.1384964 36.00824928 C60.44983238 36.00267698 59.76116837 35.99710468 59.05163574 35.99136353 C57.85776245 35.97846283 57.85776245 35.97846283 56.63977051 35.96530151 C55.77533325 35.96104156 54.910896 35.95678162 54.02026367 35.95239258 C53.1026123 35.94421509 52.18496094 35.9360376 51.23950195 35.9276123 C48.20223635 35.90280136 45.16501752 35.8862492 42.12768555 35.87182617 C40.56696571 35.86384066 40.56696571 35.86384066 38.97471619 35.85569382 C33.46256243 35.82897514 27.95043118 35.80960002 22.43823242 35.79516602 C17.89115159 35.78185337 13.34452232 35.75404784 8.79760742 35.71313477 C3.294567 35.66362464 -2.20806537 35.63902191 -7.71131897 35.63193893 C-9.80034337 35.62525566 -11.88935972 35.6101106 -13.97825623 35.58604813 C-27.41593045 35.44014377 -39.94055454 35.4521367 -50.37231445 45.27026367 C-55.47405173 51.51728891 -58.97811005 58.56461391 -59.08056641 66.66333008 C-59.09340164 67.55170563 -59.10623688 68.44008118 -59.11946106 69.3553772 C-59.12684799 70.30955536 -59.13423492 71.26373352 -59.1418457 72.24682617 C-59.14991745 73.23846771 -59.1579892 74.23010925 -59.16630554 75.25180054 C-59.18012806 77.35152448 -59.1908584 79.45127071 -59.19873047 81.55102539 C-59.21022898 83.68650957 -59.23064681 85.8219655 -59.26025391 87.95727539 C-59.30317723 91.05398966 -59.31913576 94.14985036 -59.3293457 97.24682617 C-59.34685379 98.18885895 -59.36436188 99.13089172 -59.38240051 100.10147095 C-59.35035078 110.04085902 -55.88365798 118.96485841 -48.90356445 126.14526367 C-42.44982344 131.35923756 -36.23997302 134.29980774 -27.84887695 134.55932617 C-26.18598633 134.61733398 -26.18598633 134.61733398 -24.48950195 134.67651367 C-23.34739258 134.70745117 -22.2052832 134.73838867 -21.02856445 134.77026367 C-19.2805957 134.82827148 -19.2805957 134.82827148 -17.49731445 134.88745117 C-14.63288582 134.98136686 -11.76845754 135.06704351 -8.90356445 135.14526367 C-9.3624707 136.11463867 -9.82137695 137.08401367 -10.29418945 138.08276367 C-10.91469857 139.43660174 -11.53444788 140.79078822 -12.15356445 142.14526367 C-12.45391602 142.77432617 -12.75426758 143.40338867 -13.0637207 144.05151367 C-19.16109483 157.54357557 -20.53973379 170.78073247 -20.37011719 185.41772461 C-20.34109252 188.14262866 -20.349575 190.86558221 -20.36254883 193.59057617 C-20.33311568 219.3523012 -13.93039707 241.483291 4.2409668 260.40698242 C7.59518962 263.62354904 11.09105573 266.2473509 15.00268555 268.74291992 C16.97220768 270.06205881 18.45427721 271.45127545 20.09643555 273.14526367 C-16.87427679 274.5228699 -47.82966433 265.31258025 -75.28637695 240.07885742 C-97.0928505 219.41250792 -111.06364497 191.7367012 -115.90356445 162.14526367 C-115.90356445 161.15526367 -115.90356445 160.16526367 -115.90356445 159.14526367 C-114.76290527 159.1557373 -113.62224609 159.16621094 -112.44702148 159.17700195 C-108.22407151 159.21314084 -104.00113526 159.23614179 -99.77807617 159.25512695 C-97.94862573 159.26519851 -96.11919142 159.27885643 -94.28979492 159.29614258 C-91.66361511 159.32034044 -89.0376477 159.33173499 -86.41137695 159.34057617 C-85.59049591 159.35089874 -84.76961487 159.36122131 -83.92385864 159.37185669 C-81.91567303 159.37225551 -79.90801063 159.26775907 -77.90356445 159.14526367 C-75.73914913 157.38698645 -75.73914913 157.38698645 -75.65467548 155.24652004 C-75.65522025 154.467982 -75.65576502 153.68944395 -75.65632629 152.88731384 C-75.65213181 151.99410934 -75.64793732 151.10090485 -75.64361572 150.18063354 C-75.64923523 149.19821686 -75.65485474 148.21580017 -75.66064453 147.20361328 C-75.65874619 146.17104904 -75.65684784 145.1384848 -75.65489197 144.07463074 C-75.65117599 140.64887998 -75.66189944 137.22333946 -75.6730957 133.79760742 C-75.67428706 131.42631556 -75.67474076 129.05502322 -75.67448425 126.68373108 C-75.6760505 121.70953424 -75.68435148 116.73540924 -75.69775391 111.76123047 C-75.71475316 105.36940801 -75.71856807 98.97766452 -75.71780872 92.58582211 C-75.71807999 87.68839253 -75.72355407 82.79098039 -75.73081017 77.89355659 C-75.73400324 75.53591608 -75.73596572 73.17827359 -75.73670387 70.82063103 C-75.73886017 67.53289259 -75.74758867 64.24523973 -75.75830078 60.95751953 C-75.7578476 59.97307861 -75.75739441 58.9886377 -75.75692749 57.97436523 C-75.76119247 57.08398056 -75.76545746 56.19359589 -75.76985168 55.27622986 C-75.77152753 54.49806884 -75.77320337 53.71990782 -75.77493 52.91816616 C-75.71113339 51.11966719 -75.71113339 51.11966719 -76.90356445 50.14526367 C-78.91951027 49.91098589 -80.94203845 49.73190243 -82.96606445 49.58276367 C-84.07079102 49.49897461 -85.17551758 49.41518555 -86.3137207 49.32885742 C-87.16836914 49.26827148 -88.02301758 49.20768555 -88.90356445 49.14526367 C-74.22728696 24.89750086 -46.8221524 9.30700545 -20.18481445 1.87182617 C-13.44108278 0.3785713 -6.87707072 -0.00396426 0 0 Z " fill="#484946" transform="translate(217.903564453125,78.854736328125)"/>
<path d="M0 0 C160.38 0 320.76 0 486 0 C486 0.33 486 0.66 486 1 C331.56 1 177.12 1 18 1 C18 161.38 18 321.76 18 487 C32.52 487 47.04 487 62 487 C62 487.33 62 487.66 62 488 C41.54 488 21.08 488 0 488 C0 326.96 0 165.92 0 0 Z " fill="#32809E" transform="translate(13,12)"/>
<path d="M0 0 C0 30.03 0 60.06 0 91 C-40.50235294 91 -40.50235294 91 -54.75 77.75 C-63.44642348 68.45877397 -67.58670549 57.82663082 -67.5 45.25 C-67.49355469 44.27643555 -67.48710938 43.30287109 -67.48046875 42.29980469 C-67.16441572 29.84482025 -62.61019934 20.94566165 -54 12 C-37.84350503 -2.55653139 -22.85579512 0 0 0 Z " fill="#FFCDBE" transform="translate(133,138)"/>
<path d="M0 0 C-1.21688666 2.56462135 -2.57088676 4.96102944 -4.0234375 7.40625 C-4.80762998 8.77063894 -5.59147286 10.13522887 -6.375 11.5 C-6.76171875 12.12519531 -7.1484375 12.75039062 -7.546875 13.39453125 C-15.11258112 26.87570558 -15.68934013 43.88894106 -15.57641602 58.98217773 C-15.56247633 61.56688902 -15.59692111 64.14800796 -15.63476562 66.73242188 C-15.74124741 89.84580424 -8.92013857 109.47252554 7.23828125 126.3359375 C9.72402996 128.719978 12.29370542 130.87008127 15 133 C15.92425781 133.76054687 16.84851563 134.52109375 17.80078125 135.3046875 C29.25179562 143.31897153 42.48666109 142.21055192 56 142 C56 142.33 56 142.66 56 143 C29.34769121 143.73035416 7.46229589 142.23001817 -13 123 C-25.93431121 110.20065552 -34.04829057 92.9689041 -34.32919312 74.65658569 C-34.33253159 73.35317734 -34.33253159 73.35317734 -34.3359375 72.0234375 C-34.3425943 71.09512115 -34.3492511 70.16680481 -34.35610962 69.21035767 C-34.36617621 67.25565553 -34.37092851 65.30091944 -34.37060547 63.34619141 C-34.37495803 60.40337331 -34.4112853 57.46208291 -34.44921875 54.51953125 C-34.55366904 37.25716134 -31.34492617 24.19968695 -23 9 C-22.608125 8.05125 -22.21625 7.1025 -21.8125 6.125 C-17.53524776 -2.87974156 -8.60925006 -0.77655819 0 0 Z " fill="#FBAD9C" transform="translate(241,209)"/>
<path d="M0 0 C11.58841282 -0.82122611 21.64492899 2.0853823 31 9 C31.59296875 9.41765625 32.1859375 9.8353125 32.796875 10.265625 C40.75476783 16.39249824 46.57786823 26.05755243 48 36 C49.35024135 50.03807258 48.46160677 61.86905075 39.46875 73.34765625 C34.59049562 79.16470513 29.22135347 84.27016968 22 87 C21.34 87 20.68 87 20 87 C19.98541748 86.40799805 19.97083496 85.81599609 19.95581055 85.20605469 C19.19480531 57.29356577 14.88092611 32.12140063 2.81835938 6.76171875 C1.78738665 4.54229776 0.87474405 2.28504569 0 0 Z " fill="#FCCCBD" transform="translate(398,138)"/>
<path d="M0 0 C-2.92707575 2.27358907 -5.95341832 4.21095508 -9.125 6.125 C-25.61120601 16.61821767 -37.05336661 31.97735672 -41.45703125 51.11328125 C-42.84311663 58.48246901 -43.20267586 65.56407314 -43.31640625 73.05859375 C-43.33718735 74.20288345 -43.35796844 75.34717316 -43.37937927 76.52613831 C-43.44449793 80.16320076 -43.5035839 83.80033231 -43.5625 87.4375 C-43.60572108 89.91081429 -43.6493365 92.38412173 -43.69335938 94.85742188 C-43.80014053 100.90487802 -43.90151319 106.95240332 -44 113 C-49.94 113 -55.88 113 -62 113 C-62.12470631 105.17535033 -62.21486013 97.35129433 -62.2746582 89.52587891 C-62.29676628 86.87009646 -62.33358917 84.21570948 -62.37719727 81.56005859 C-62.76282093 57.45177434 -60.59612702 38.47658567 -43.23046875 20.23828125 C-42.49441406 19.49964844 -41.75835937 18.76101563 -41 18 C-40.39800781 17.37480469 -39.79601562 16.74960937 -39.17578125 16.10546875 C-28.94324086 6.27246356 -14.20597786 -0.33376747 0 0 Z " fill="#323230" transform="translate(147,386)"/>
<path d="M0 0 C5.94 0.33 11.88 0.66 18 1 C18.556875 3.31 19.11375 5.62 19.6875 8 C22.96766827 21.20932628 26.75833671 33.84368538 33 46 C33.31952637 46.62374512 33.63905273 47.24749023 33.96826172 47.89013672 C49.17913054 77.20628627 73.07633595 99.11537959 104 111 C104 111.33 104 111.66 104 112 C75.42907193 110.02959117 49.57348342 91.81436773 31 71 C15.3568297 52.71472885 0 24.78216338 0 0 Z " fill="#323230" transform="translate(102,238)"/>
<path d="M0 0 C2.875 0.75 2.875 0.75 3.875 1.75 C3.96795815 3.19289787 3.99246513 4.64029785 3.98852539 6.08618164 C3.98841209 7.46750023 3.98841209 7.46750023 3.98829651 8.87672424 C3.98313522 9.87775681 3.97797394 10.87878937 3.97265625 11.91015625 C3.9712413 12.92975937 3.96982635 13.94936249 3.96836853 14.99986267 C3.96275097 18.27077107 3.9501955 21.54161213 3.9375 24.8125 C3.93248726 27.02408756 3.92792396 29.23567618 3.92382812 31.44726562 C3.91277584 36.88153357 3.89602063 42.31576197 3.875 47.75 C5.54054932 47.73428955 5.54054932 47.73428955 7.23974609 47.71826172 C11.35087879 47.68212051 15.46199739 47.65912104 19.57324219 47.64013672 C21.35419067 47.63006569 23.13512257 47.61640815 24.91601562 47.59912109 C27.47269783 47.57492087 30.02916185 47.56352816 32.5859375 47.5546875 C33.78444839 47.53920364 33.78444839 47.53920364 35.00717163 47.52340698 C36.9645722 47.52300774 38.92143077 47.62758931 40.875 47.75 C41.535 48.41 42.195 49.07 42.875 49.75 C42.30681818 55.31818182 42.30681818 55.31818182 40.875 56.75 C39.46286923 56.84982042 38.04579352 56.88074831 36.63014221 56.88371277 C35.71451508 56.88797775 34.79888794 56.89224274 33.85551453 56.89663696 C32.84302139 56.89618378 31.83052826 56.89573059 30.78735352 56.89526367 C29.72728088 56.89862228 28.66720825 56.9019809 27.57501221 56.90544128 C24.05129848 56.91498362 20.52763211 56.91689602 17.00390625 56.91796875 C14.56631958 56.92117898 12.12873311 56.92454287 9.69114685 56.92805481 C4.57395989 56.93405426 -0.54321016 56.93589387 -5.66040039 56.93530273 C-12.23265933 56.93520105 -18.80481038 56.94885616 -25.37704372 56.96607494 C-30.41348269 56.97716763 -35.44989535 56.97922279 -40.48634529 56.97869301 C-42.9101505 56.97987715 -45.3339563 56.984323 -47.75774956 56.99202538 C-51.14123061 57.00177054 -54.5244745 56.99896896 -57.90795898 56.99291992 C-59.42366234 57.00134918 -59.42366234 57.00134918 -60.96998596 57.00994873 C-61.88843292 57.00575424 -62.80687988 57.00155975 -63.75315857 56.99723816 C-64.55381965 56.99778293 -65.35448072 56.99832769 -66.17940426 56.99888897 C-68.125 56.75 -68.125 56.75 -70.125 54.75 C-70.47789284 51.99743589 -70.59445354 50.42002853 -68.97673035 48.11112976 C-66.3411648 46.17383543 -64.43566735 46.38931546 -61.18481445 46.40942383 C-59.96377518 46.40965042 -58.7427359 46.40987701 -57.48469543 46.41011047 C-55.50647041 46.43333626 -55.50647041 46.43333626 -53.48828125 46.45703125 C-52.12493862 46.46262757 -50.76158996 46.4668975 -49.39823914 46.46989441 C-45.81256408 46.48134051 -42.22725446 46.51080514 -38.64172363 46.54400635 C-34.9819025 46.57471261 -31.32202223 46.5884009 -27.66210938 46.60351562 C-20.48290644 46.63567551 -13.30400446 46.68686847 -6.125 46.75 C-6.14071045 45.43281982 -6.1564209 44.11563965 -6.17260742 42.75854492 C-6.22685386 37.87774761 -6.2613309 32.996977 -6.28979492 28.1159668 C-6.3048936 26.00231446 -6.32537426 23.88869352 -6.35131836 21.77514648 C-6.38765397 18.73934185 -6.40471544 15.70395094 -6.41796875 12.66796875 C-6.43345261 11.72100632 -6.44893646 10.77404388 -6.46488953 9.79838562 C-6.46511612 8.91769913 -6.46534271 8.03701263 -6.46557617 7.12963867 C-6.47223801 6.35464523 -6.47889984 5.57965179 -6.48576355 4.78117371 C-5.76371909 0.71591347 -3.97282709 -0.31782617 0 0 Z " fill="#070605" transform="translate(307.125,237.25)"/>
<path d="M0 0 C-1.051875 0.8353125 -1.051875 0.8353125 -2.125 1.6875 C-3.6312808 2.89907369 -5.13425574 4.11587354 -6.59765625 5.37890625 C-10.79647436 9 -10.79647436 9 -13 9 C-13.40798828 9.86818359 -13.40798828 9.86818359 -13.82421875 10.75390625 C-14.99408127 12.98869345 -16.33011195 14.89970535 -17.8125 16.9375 C-25.99187971 29.37739198 -27.70809754 41.36000826 -26 56 C-23.0938578 69.14429456 -14.72956248 80.04502991 -3.73632812 87.54418945 C-0.72930522 89.14401793 1.14120062 89.41735197 4.51953125 89.51171875 C5.54111328 89.54716797 6.56269531 89.58261719 7.61523438 89.61914062 C8.67033203 89.64169922 9.72542969 89.66425781 10.8125 89.6875 C11.88693359 89.72166016 12.96136719 89.75582031 14.06835938 89.79101562 C16.71213533 89.87326643 19.35558921 89.94249209 22 90 C22 90.33 22 90.66 22 91 C18.08984372 91.10041887 14.18020749 91.17218019 10.26904297 91.21972656 C8.30018659 91.2492475 6.33168702 91.30012677 4.36328125 91.3515625 C-9.75323258 91.49487736 -22.2729559 87.49342176 -32.75 77.75 C-41.44642348 68.45877397 -45.58670549 57.82663082 -45.5 45.25 C-45.49355469 44.27643555 -45.48710938 43.30287109 -45.48046875 42.29980469 C-45.16441572 29.84482025 -40.61019934 20.94566165 -32 12 C-22.67872417 3.60180197 -12.48700426 -0.44420173 0 0 Z " fill="#FAAD9B" transform="translate(111,138)"/>
<path d="M0 0 C0.90781219 -0.00029205 1.81562439 -0.00058411 2.75094604 -0.00088501 C5.74316051 0.0005052 8.7351241 0.01605195 11.72729492 0.03173828 C13.80523035 0.03546951 15.88316753 0.03831596 17.96110535 0.04031372 C23.42407101 0.04794153 28.88692995 0.06758278 34.34985352 0.08972168 C39.92682451 0.11019842 45.50381278 0.11931935 51.08081055 0.12939453 C62.01900842 0.15082941 72.95712716 0.18495514 83.89526367 0.22705078 C83.89526367 0.55705078 83.89526367 0.88705078 83.89526367 1.22705078 C82.86875702 1.22181396 81.84225037 1.21657715 80.78463745 1.21118164 C71.10303279 1.16700438 61.42220609 1.16486228 51.74056816 1.20370483 C46.76317464 1.22232766 41.78668331 1.22622329 36.80932617 1.19628906 C32.00423427 1.16793555 27.20064831 1.17849375 22.3956337 1.21585083 C20.56406083 1.22328816 18.73237579 1.21678592 16.90090561 1.1960144 C7.27353907 0.73082071 7.27353907 0.73082071 -1.48944092 3.82861328 C-3.12954906 5.90383427 -4.11882462 7.78053106 -5.10473633 10.22705078 C-5.71454346 11.33193848 -6.32435059 12.43682617 -6.95263672 13.57519531 C-8.45953553 18.35167176 -8.55385247 22.67673976 -8.53833008 27.65673828 C-8.54619286 29.14139084 -8.54619286 29.14139084 -8.55421448 30.65603638 C-8.56061463 32.74203558 -8.55932379 34.82807097 -8.55078125 36.9140625 C-8.5422808 40.08546041 -8.5710464 43.25504961 -8.6027832 46.42626953 C-8.60439581 48.46142525 -8.60381654 50.49658412 -8.60083008 52.53173828 C-8.61206406 53.46952118 -8.62329803 54.40730408 -8.63487244 55.37350464 C-8.5483146 63.65638783 -6.04784652 70.29816304 -0.85473633 76.78955078 C-0.33395508 77.45083984 0.18682617 78.11212891 0.72338867 78.79345703 C1.3034668 79.50308594 1.3034668 79.50308594 1.89526367 80.22705078 C-6.39930338 80.8586168 -12.41215835 80.44918555 -19.10473633 75.22705078 C-24.32627252 70.46354408 -27.16167882 64.54472932 -27.5246582 57.55200195 C-27.55768664 55.79157572 -27.57309006 54.03075552 -27.57348633 52.27001953 C-27.58109985 51.32701492 -27.58871338 50.38401031 -27.59655762 49.41242981 C-27.60732127 47.42480097 -27.61022699 45.43711575 -27.60571289 43.44946289 C-27.60474246 40.43359341 -27.64636803 37.42028683 -27.69067383 34.40478516 C-27.81288034 15.03444956 -27.81288034 15.03444956 -22.10473633 8.22705078 C-15.20987976 1.81447267 -9.26219679 -0.0782022 0 0 Z " fill="#F7AB9A" transform="translate(195.104736328125,123.77294921875)"/>
<path d="M0 0 C1.15129395 -0.00945648 2.30258789 -0.01891296 3.48876953 -0.02865601 C5.3544458 -0.01954697 5.3544458 -0.01954697 7.2578125 -0.01025391 C9.17182861 -0.01455917 9.17182861 -0.01455917 11.12451172 -0.01895142 C13.82485366 -0.02099475 16.52438331 -0.01695032 19.22460938 -0.00292969 C22.6850048 0.0141627 26.14470221 0.00432052 29.60507202 -0.01364708 C32.90601056 -0.02709657 36.20686486 -0.01767885 39.5078125 -0.01025391 C40.75159668 -0.0163266 41.99538086 -0.02239929 43.27685547 -0.02865601 C45.00379639 -0.01447128 45.00379639 -0.01447128 46.765625 0 C47.78027832 0.00238678 48.79493164 0.00477356 49.84033203 0.00723267 C52.3828125 0.38818359 52.3828125 0.38818359 54.20962524 1.73922729 C56.00508828 4.26281427 55.77179987 6.42009107 55.78125 9.48193359 C55.78511719 10.67689453 55.78898437 11.87185547 55.79296875 13.10302734 C55.78136719 14.35212891 55.76976562 15.60123047 55.7578125 16.88818359 C55.76941406 18.13728516 55.78101563 19.38638672 55.79296875 20.67333984 C55.78910156 21.86830078 55.78523438 23.06326172 55.78125 24.29443359 C55.77786621 25.39078125 55.77448242 26.48712891 55.77099609 27.61669922 C55.3828125 30.38818359 55.3828125 30.38818359 54.05322266 32.28076172 C52.3828125 33.38818359 52.3828125 33.38818359 49.2578125 33.20068359 C48.3090625 32.93255859 47.3603125 32.66443359 46.3828125 32.38818359 C43.0998599 25.82227839 45.3828125 17.72908878 45.3828125 10.38818359 C30.8628125 10.38818359 16.3428125 10.38818359 1.3828125 10.38818359 C1.3828125 16.98818359 1.3828125 23.58818359 1.3828125 30.38818359 C0.3928125 31.37818359 -0.5971875 32.36818359 -1.6171875 33.38818359 C-4.7421875 33.20068359 -4.7421875 33.20068359 -7.6171875 32.38818359 C-9.84606996 27.93041868 -8.84711479 21.8459159 -8.8671875 16.95068359 C-8.8878125 15.69707031 -8.9084375 14.44345703 -8.9296875 13.15185547 C-8.93484375 11.95238281 -8.94 10.75291016 -8.9453125 9.51708984 C-8.9546582 8.41437744 -8.96400391 7.31166504 -8.97363281 6.17553711 C-8.6171875 3.38818359 -8.6171875 3.38818359 -7.44598389 1.73823547 C-4.90457603 -0.13787959 -3.14251067 0.00739216 0 0 Z " fill="#030202" transform="translate(280.6171875,192.61181640625)"/>
<path d="M0 0 C-1.02738281 0.49628906 -2.05476563 0.99257812 -3.11328125 1.50390625 C-15.40633025 7.50312842 -26.5194384 14.13311217 -37 23 C-37.81210938 23.67675781 -38.62421875 24.35351562 -39.4609375 25.05078125 C-48.04512574 32.45701306 -54.9592863 41.15817349 -62 50 C-62.66 49.34 -63.32 48.68 -64 48 C-66.89223503 47.53603307 -66.89223503 47.53603307 -70.125 47.375 C-71.22070312 47.30023438 -72.31640625 47.22546875 -73.4453125 47.1484375 C-74.28835937 47.09945312 -75.13140625 47.05046875 -76 47 C-61.16677036 22.49292493 -33.67171139 7.25416794 -6.890625 -0.46875 C-4.10721295 -0.980296 -2.61924834 -0.96632463 0 0 Z " fill="#313130" transform="translate(205,81)"/>
<path d="M0 0 C0.85428589 -0.00191345 1.70857178 -0.0038269 2.58874512 -0.00579834 C4.39429011 -0.00715887 6.19984492 -0.00347164 8.00537109 0.00488281 C10.7707311 0.01558429 13.53544147 0.00498316 16.30078125 -0.0078125 C18.05468894 -0.00649088 19.80859622 -0.00392844 21.5625 0 C22.39068237 -0.00404846 23.21886475 -0.00809692 24.07214355 -0.01226807 C27.9853655 0.01973377 29.95225141 0.0462926 33.28125 2.265625 C33.59375 5.265625 33.59375 5.265625 33.28125 8.265625 C30.59164817 10.95522683 28.51017482 10.51521663 24.8548584 10.54351807 C23.97463013 10.5394696 23.09440186 10.53542114 22.1875 10.53125 C20.8338031 10.53412018 20.8338031 10.53412018 19.45275879 10.53704834 C17.54288454 10.53841059 15.63300104 10.53471138 13.72314453 10.52636719 C10.7930835 10.51566821 7.86363562 10.52626111 4.93359375 10.5390625 C3.08072781 10.53774091 1.22786225 10.53517853 -0.625 10.53125 C-1.94534241 10.53732269 -1.94534241 10.53732269 -3.2923584 10.54351807 C-9.4888334 10.4955416 -9.4888334 10.4955416 -11.71875 8.265625 C-12.03125 5.265625 -12.03125 5.265625 -11.71875 2.265625 C-7.81791748 -0.33493002 -4.52397315 -0.02211485 0 0 Z " fill="#050403" transform="translate(236.71875,155.734375)"/>
<path d="M0 0 C0.85570084 -0.0033284 1.71140167 -0.0066568 2.59303284 -0.01008606 C4.40454571 -0.01515316 6.21606794 -0.01749445 8.02758789 -0.01733398 C10.80175122 -0.0195197 13.57551649 -0.03767542 16.34960938 -0.05664062 C18.10807155 -0.05957472 19.86653563 -0.06155941 21.625 -0.0625 C22.87197914 -0.07327827 22.87197914 -0.07327827 24.14414978 -0.08427429 C28.07045919 -0.06866988 30.03812256 -0.05922038 33.37890625 2.16796875 C33.69140625 5.16796875 33.69140625 5.16796875 33.37890625 8.16796875 C30.68930442 10.85757058 28.60783107 10.41756038 24.95251465 10.44586182 C24.07228638 10.44181335 23.19205811 10.43776489 22.28515625 10.43359375 C20.93145935 10.43646393 20.93145935 10.43646393 19.55041504 10.43939209 C17.64054079 10.44075434 15.73065729 10.43705513 13.82080078 10.42871094 C10.89073975 10.41801196 7.96129187 10.42860486 5.03125 10.44140625 C3.17838406 10.44008466 1.3255185 10.43752228 -0.52734375 10.43359375 C-1.84768616 10.43966644 -1.84768616 10.43966644 -3.19470215 10.44586182 C-9.39117715 10.39788535 -9.39117715 10.39788535 -11.62109375 8.16796875 C-11.37109375 4.60546875 -11.37109375 4.60546875 -10.62109375 1.16796875 C-7.31609922 -0.48452851 -3.63322232 0.0048517 0 0 Z " fill="#050403" transform="translate(330.62109375,155.83203125)"/>
<path d="M0 0 C5.94 1.485 5.94 1.485 12 3 C14.31 3.33 16.62 3.66 19 4 C18.67 10.93 18.34 17.86 18 25 C12.06 25 6.12 25 0 25 C0 16.75 0 8.5 0 0 Z " fill="#323230" transform="translate(182,355)"/>
<path d="M0 0 C2 1.6875 2 1.6875 3 4 C2.92936148 7.46128747 2.64776603 9.28025997 0.3125 11.875 C-2.76660389 13.37294243 -4.61700591 13.56383235 -8 13 C-10.4375 10.875 -10.4375 10.875 -12 8 C-12 4.49267067 -11.6345092 2.7565302 -9.375 0.0625 C-5.88680246 -1.49800943 -3.63567102 -0.99154664 0 0 Z " fill="#0C0909" transform="translate(252,170)"/>
<path d="M0 0 C2.375 1 2.375 1 4 3 C4.56641498 5.77427747 4.56641498 8.22572253 4 11 C1.82200662 13.68060724 0.38998695 13.93500217 -3 14.5 C-6 14 -6 14 -8.4375 11.875 C-10 9 -10 9 -9.9375 5.875 C-8.11091365 0.27346851 -5.85501901 -0.7169411 0 0 Z " fill="#090707" transform="translate(317,207)"/>
<path d="M0 0 C2.5 1.5625 2.5 1.5625 4 4 C4 7.77684879 3.78395245 10.03513544 1.375 13 C-2.07663304 14.45331917 -4.42809484 13.92604949 -8 13 C-10.46324069 9.30513897 -10.38991688 7.36706908 -10 3 C-7.7773391 -1.05308751 -4.20075589 -0.5158823 0 0 Z " fill="#090707" transform="translate(297,207)"/>
<path d="M0 0 C2 1.6875 2 1.6875 3 4 C2.87304813 7.11032079 2.47953174 9.20078043 0.875 11.875 C-2.12446786 13.67468071 -4.59386668 13.36494286 -8 13 C-9.9375 12 -9.9375 12 -11 10 C-11.46000079 7.23999526 -11.50420748 4.75595226 -11 2 C-7.95184114 -2.0235697 -4.53799409 -1.23763475 0 0 Z " fill="#090707" transform="translate(346,170)"/>
</svg>
